<?xml version="1.0" encoding="UTF-8"?><svg id="Capa_2" xmlns="http://www.w3.org/2000/svg" viewBox="0 0 487.47 507.45"><defs><style>.cls-1{fill:#1fa9c9;}.cls-2{fill:#fff;}.cls-3{fill:#e2e2e2;}.cls-4{fill:#2dcfea;}.cls-5{fill:#ff80b1;}.cls-6{fill:#f9417f;}</style></defs><g id="Vector"><g><polygon class="cls-5" points="0 182.48 0 290.81 54.16 290.81 54.16 507.45 162.49 507.45 162.49 182.48 0 182.48"/><path class="cls-2" d="M236.65,399.13h-20V128.32H0v-20H226.65c5.52,0,10,4.48,10,10V399.13Z"/><rect class="cls-4" x="379.14" y="74.16" width="108.33" height="433.29"/><path class="cls-2" d="M324.98,399.13h-20V10c0-5.52,4.48-10,10-10h172.49V20h-162.49V399.13Z"/><path class="cls-6" d="M0,182.48v54.16c0,29.91,24.25,54.16,54.16,54.16h0v216.65h108.33V236.64c0-29.91-24.25-54.16-54.16-54.16H0Z"/><path class="cls-1" d="M379.14,507.45V182.49c0-59.83,48.5-108.33,108.33-108.33h0V507.45h-108.33Z"/><rect class="cls-3" x="216.65" y="453.29" width="108.33" height="54.16"/><path class="cls-2" d="M216.65,453.29h108.33v16.71c0,20.67-16.78,37.45-37.45,37.45h-33.43c-20.67,0-37.45-16.78-37.45-37.45v-16.71h0Z"/></g></g></svg>